<svg xmlns="http://www.w3.org/2000/svg" width="1200" height="760" viewBox="0 0 1200 760" role="img" aria-labelledby="title desc">
  <title id="title">Human and AI interaction banner</title>
  <desc id="desc">A technician and an AI interface collaborating through connected system utility panels.</desc>
  <defs>
    <linearGradient id="bg" x1="80" y1="48" x2="1120" y2="712" gradientUnits="userSpaceOnUse">
      <stop stop-color="#10252d"/>
      <stop offset=".48" stop-color="#071014"/>
      <stop offset="1" stop-color="#123027"/>
    </linearGradient>
    <linearGradient id="accent" x1="240" y1="132" x2="1000" y2="646" gradientUnits="userSpaceOnUse">
      <stop stop-color="#37d7a1"/>
      <stop offset=".55" stop-color="#75d6ff"/>
      <stop offset="1" stop-color="#f7c873"/>
    </linearGradient>
    <filter id="softGlow" x="-30%" y="-30%" width="160%" height="160%">
      <feGaussianBlur stdDeviation="10" result="blur"/>
      <feColorMatrix in="blur" type="matrix" values="0 0 0 0 0.216 0 0 0 0 0.843 0 0 0 0 0.631 0 0 0 .45 0"/>
      <feBlend in="SourceGraphic"/>
    </filter>
  </defs>
  <rect width="1200" height="760" rx="44" fill="url(#bg)"/>
  <path d="M0 560C190 460 316 536 476 438c171-105 231-268 449-230 118 20 207 95 275 180v372H0Z" fill="#37d7a1" opacity=".07"/>
  <path d="M105 126h990M105 244h990M105 362h990M105 480h990M105 598h990M210 72v616M390 72v616M570 72v616M750 72v616M930 72v616" stroke="#75d6ff" stroke-opacity=".055" stroke-width="2"/>
  <rect x="146" y="132" width="332" height="430" rx="34" fill="#0c181e" stroke="#75d6ff" stroke-opacity=".25"/>
  <circle cx="312" cy="250" r="72" fill="#12242c" stroke="#37d7a1" stroke-opacity=".5" stroke-width="8"/>
  <path d="M270 248c12 22 27 33 44 33s33-11 48-33" fill="none" stroke="#edf8fb" stroke-opacity=".85" stroke-width="10" stroke-linecap="round"/>
  <circle cx="284" cy="231" r="8" fill="#edf8fb"/>
  <circle cx="340" cy="231" r="8" fill="#edf8fb"/>
  <path d="M208 432c35-58 70-87 105-87 35 0 71 29 108 87v71H208Z" fill="#123027" stroke="#37d7a1" stroke-opacity=".35" stroke-width="6"/>
  <rect x="548" y="112" width="506" height="480" rx="36" fill="#071014" stroke="#75d6ff" stroke-opacity=".32"/>
  <rect x="584" y="152" width="434" height="68" rx="18" fill="#12242c"/>
  <path d="M620 186h170M830 186h130" stroke="#37d7a1" stroke-width="12" stroke-linecap="round"/>
  <rect x="584" y="252" width="196" height="126" rx="22" fill="#0c181e" stroke="#75d6ff" stroke-opacity=".18"/>
  <rect x="822" y="252" width="196" height="126" rx="22" fill="#0c181e" stroke="#75d6ff" stroke-opacity=".18"/>
  <rect x="584" y="414" width="434" height="124" rx="22" fill="#0c181e" stroke="#75d6ff" stroke-opacity=".18"/>
  <path d="M626 316h92M864 316h98M626 474h302" stroke="#edf8fb" stroke-opacity=".72" stroke-width="14" stroke-linecap="round"/>
  <path d="M626 346h52M864 346h70M626 506h184" stroke="#37d7a1" stroke-opacity=".78" stroke-width="11" stroke-linecap="round"/>
  <path d="M480 338c44-47 89-70 135-70M480 376c78 44 148 59 210 45" stroke="url(#accent)" stroke-width="10" stroke-linecap="round" filter="url(#softGlow)"/>
  <circle cx="615" cy="268" r="13" fill="#37d7a1"/>
  <circle cx="690" cy="421" r="13" fill="#75d6ff"/>
  <circle cx="480" cy="338" r="13" fill="#f7c873"/>
  <text x="146" y="640" fill="#edf8fb" font-family="Segoe UI, sans-serif" font-size="36" font-weight="800">25 years of experience</text>
  <text x="146" y="684" fill="#9fb7bf" font-family="Segoe UI, sans-serif" font-size="27">powered with AI capabilities</text>
</svg>
