<svg xmlns="http://www.w3.org/2000/svg" width="220" height="220" viewBox="0 0 220 220" role="img" aria-labelledby="title desc">
  <title id="title">VTech App logo</title>
  <desc id="desc">A VTech App monogram combining a V shape, circuit paths, and an AI node.</desc>
  <defs>
    <linearGradient id="mark" x1="36" y1="26" x2="184" y2="194" gradientUnits="userSpaceOnUse">
      <stop stop-color="#37d7a1"/>
      <stop offset=".52" stop-color="#75d6ff"/>
      <stop offset="1" stop-color="#f7c873"/>
    </linearGradient>
    <filter id="glow" x="-40%" y="-40%" width="180%" height="180%">
      <feGaussianBlur stdDeviation="7" result="blur"/>
      <feColorMatrix in="blur" type="matrix" values="0 0 0 0 0.216 0 0 0 0 0.843 0 0 0 0 0.631 0 0 0 .55 0"/>
      <feBlend in="SourceGraphic"/>
    </filter>
  </defs>
  <rect x="18" y="18" width="184" height="184" rx="46" fill="#071014"/>
  <rect x="24" y="24" width="172" height="172" rx="40" fill="#0c181e" stroke="#75d6ff" stroke-opacity=".28"/>
  <path d="M55 58l55 112 55-112" fill="none" stroke="url(#mark)" stroke-width="18" stroke-linecap="round" stroke-linejoin="round" filter="url(#glow)"/>
  <path d="M77 70h-20c-12 0-21 9-21 21v19M143 70h20c12 0 21 9 21 21v19M110 165v25" fill="none" stroke="#75d6ff" stroke-opacity=".72" stroke-width="7" stroke-linecap="round"/>
  <circle cx="36" cy="122" r="8" fill="#37d7a1"/>
  <circle cx="184" cy="122" r="8" fill="#75d6ff"/>
  <circle cx="110" cy="194" r="8" fill="#f7c873"/>
  <circle cx="110" cy="86" r="20" fill="#071014" stroke="#edf8fb" stroke-opacity=".9" stroke-width="6"/>
  <circle cx="110" cy="86" r="6" fill="#37d7a1"/>
</svg>
